<?xml version="1.0" encoding="utf-8" standalone="no"?>
<!DOCTYPE svg PUBLIC "-//W3C//DTD SVG 1.1//EN"
  "http://www.w3.org/Graphics/SVG/1.1/DTD/svg11.dtd">
<svg xmlns:xlink="http://www.w3.org/1999/xlink" width="576pt" height="576pt" viewBox="0 0 576 576" xmlns="http://www.w3.org/2000/svg" version="1.1">
 <metadata>
  <rdf:RDF xmlns:dc="http://purl.org/dc/elements/1.1/" xmlns:cc="http://creativecommons.org/ns#" xmlns:rdf="http://www.w3.org/1999/02/22-rdf-syntax-ns#">
   <cc:Work>
    <dc:type rdf:resource="http://purl.org/dc/dcmitype/StillImage"/>
    <dc:date>2026-05-18T17:16:51.002613</dc:date>
    <dc:format>image/svg+xml</dc:format>
    <dc:creator>
     <cc:Agent>
      <dc:title>Matplotlib v3.10.9, https://matplotlib.org/</dc:title>
     </cc:Agent>
    </dc:creator>
   </cc:Work>
  </rdf:RDF>
 </metadata>
 <defs>
  <style type="text/css">*{stroke-linejoin: round; stroke-linecap: butt}</style>
 </defs>
 <g id="figure_1">
  <g id="patch_1">
   <path d="M 0 576 
L 576 576 
L 576 0 
L 0 0 
z
" style="fill: #0f0f0f"/>
  </g>
  <g id="axes_1">
   <g id="patch_2">
    <path d="M 40.48 541.82 
L 565.2 541.82 
L 565.2 17.1 
L 40.48 17.1 
z
" style="fill: #0f0f0f"/>
   </g>
   <g id="matplotlib.axis_1">
    <g id="xtick_1">
     <g id="line2d_1">
      <path d="M 66.552839 541.82 
L 66.552839 17.1 
" clip-path="url(#pa68d272618)" style="fill: none; stroke-dasharray: 2.96,1.28; stroke-dashoffset: 0; stroke: #2a2a2a; stroke-opacity: 0.6; stroke-width: 0.8"/>
     </g>
     <g id="line2d_2">
      <defs>
       <path id="mfbeaac7b33" d="M 0 0 
L 0 3.5 
" style="stroke: #666666; stroke-width: 0.8"/>
      </defs>
      <g>
       <use xlink:href="#mfbeaac7b33" x="66.552839" y="541.82" style="fill: #666666; stroke: #666666; stroke-width: 0.8"/>
      </g>
     </g>
     <g id="text_1">
      <!-- −0.5 -->
      <g style="fill: #666666" transform="translate(54.411433 556.418437) scale(0.1 -0.1)">
       <defs>
        <path id="DejaVuSans-2212" d="M 678 2272 
L 4684 2272 
L 4684 1741 
L 678 1741 
L 678 2272 
z
" transform="scale(0.015625)"/>
        <path id="DejaVuSans-30" d="M 2034 4250 
Q 1547 4250 1301 3770 
Q 1056 3291 1056 2328 
Q 1056 1369 1301 889 
Q 1547 409 2034 409 
Q 2525 409 2770 889 
Q 3016 1369 3016 2328 
Q 3016 3291 2770 3770 
Q 2525 4250 2034 4250 
z
M 2034 4750 
Q 2819 4750 3233 4129 
Q 3647 3509 3647 2328 
Q 3647 1150 3233 529 
Q 2819 -91 2034 -91 
Q 1250 -91 836 529 
Q 422 1150 422 2328 
Q 422 3509 836 4129 
Q 1250 4750 2034 4750 
z
" transform="scale(0.015625)"/>
        <path id="DejaVuSans-2e" d="M 684 794 
L 1344 794 
L 1344 0 
L 684 0 
L 684 794 
z
" transform="scale(0.015625)"/>
        <path id="DejaVuSans-35" d="M 691 4666 
L 3169 4666 
L 3169 4134 
L 1269 4134 
L 1269 2991 
Q 1406 3038 1543 3061 
Q 1681 3084 1819 3084 
Q 2600 3084 3056 2656 
Q 3513 2228 3513 1497 
Q 3513 744 3044 326 
Q 2575 -91 1722 -91 
Q 1428 -91 1123 -41 
Q 819 9 494 109 
L 494 744 
Q 775 591 1075 516 
Q 1375 441 1709 441 
Q 2250 441 2565 725 
Q 2881 1009 2881 1497 
Q 2881 1984 2565 2268 
Q 2250 2553 1709 2553 
Q 1456 2553 1204 2497 
Q 953 2441 691 2322 
L 691 4666 
z
" transform="scale(0.015625)"/>
       </defs>
       <use xlink:href="#DejaVuSans-2212"/>
       <use xlink:href="#DejaVuSans-30" transform="translate(83.789062 0)"/>
       <use xlink:href="#DejaVuSans-2e" transform="translate(147.412109 0)"/>
       <use xlink:href="#DejaVuSans-35" transform="translate(179.199219 0)"/>
      </g>
     </g>
    </g>
    <g id="xtick_2">
     <g id="line2d_3">
      <path d="M 150.720632 541.82 
L 150.720632 17.1 
" clip-path="url(#pa68d272618)" style="fill: none; stroke-dasharray: 2.96,1.28; stroke-dashoffset: 0; stroke: #2a2a2a; stroke-opacity: 0.6; stroke-width: 0.8"/>
     </g>
     <g id="line2d_4">
      <g>
       <use xlink:href="#mfbeaac7b33" x="150.720632" y="541.82" style="fill: #666666; stroke: #666666; stroke-width: 0.8"/>
      </g>
     </g>
     <g id="text_2">
      <!-- 0.0 -->
      <g style="fill: #666666" transform="translate(142.769069 556.418437) scale(0.1 -0.1)">
       <use xlink:href="#DejaVuSans-30"/>
       <use xlink:href="#DejaVuSans-2e" transform="translate(63.623047 0)"/>
       <use xlink:href="#DejaVuSans-30" transform="translate(95.410156 0)"/>
      </g>
     </g>
    </g>
    <g id="xtick_3">
     <g id="line2d_5">
      <path d="M 234.888424 541.82 
L 234.888424 17.1 
" clip-path="url(#pa68d272618)" style="fill: none; stroke-dasharray: 2.96,1.28; stroke-dashoffset: 0; stroke: #2a2a2a; stroke-opacity: 0.6; stroke-width: 0.8"/>
     </g>
     <g id="line2d_6">
      <g>
       <use xlink:href="#mfbeaac7b33" x="234.888424" y="541.82" style="fill: #666666; stroke: #666666; stroke-width: 0.8"/>
      </g>
     </g>
     <g id="text_3">
      <!-- 0.5 -->
      <g style="fill: #666666" transform="translate(226.936861 556.418437) scale(0.1 -0.1)">
       <use xlink:href="#DejaVuSans-30"/>
       <use xlink:href="#DejaVuSans-2e" transform="translate(63.623047 0)"/>
       <use xlink:href="#DejaVuSans-35" transform="translate(95.410156 0)"/>
      </g>
     </g>
    </g>
    <g id="xtick_4">
     <g id="line2d_7">
      <path d="M 319.056216 541.82 
L 319.056216 17.1 
" clip-path="url(#pa68d272618)" style="fill: none; stroke-dasharray: 2.96,1.28; stroke-dashoffset: 0; stroke: #2a2a2a; stroke-opacity: 0.6; stroke-width: 0.8"/>
     </g>
     <g id="line2d_8">
      <g>
       <use xlink:href="#mfbeaac7b33" x="319.056216" y="541.82" style="fill: #666666; stroke: #666666; stroke-width: 0.8"/>
      </g>
     </g>
     <g id="text_4">
      <!-- 1.0 -->
      <g style="fill: #666666" transform="translate(311.104654 556.418437) scale(0.1 -0.1)">
       <defs>
        <path id="DejaVuSans-31" d="M 794 531 
L 1825 531 
L 1825 4091 
L 703 3866 
L 703 4441 
L 1819 4666 
L 2450 4666 
L 2450 531 
L 3481 531 
L 3481 0 
L 794 0 
L 794 531 
z
" transform="scale(0.015625)"/>
       </defs>
       <use xlink:href="#DejaVuSans-31"/>
       <use xlink:href="#DejaVuSans-2e" transform="translate(63.623047 0)"/>
       <use xlink:href="#DejaVuSans-30" transform="translate(95.410156 0)"/>
      </g>
     </g>
    </g>
    <g id="xtick_5">
     <g id="line2d_9">
      <path d="M 403.224008 541.82 
L 403.224008 17.1 
" clip-path="url(#pa68d272618)" style="fill: none; stroke-dasharray: 2.96,1.28; stroke-dashoffset: 0; stroke: #2a2a2a; stroke-opacity: 0.6; stroke-width: 0.8"/>
     </g>
     <g id="line2d_10">
      <g>
       <use xlink:href="#mfbeaac7b33" x="403.224008" y="541.82" style="fill: #666666; stroke: #666666; stroke-width: 0.8"/>
      </g>
     </g>
     <g id="text_5">
      <!-- 1.5 -->
      <g style="fill: #666666" transform="translate(395.272446 556.418437) scale(0.1 -0.1)">
       <use xlink:href="#DejaVuSans-31"/>
       <use xlink:href="#DejaVuSans-2e" transform="translate(63.623047 0)"/>
       <use xlink:href="#DejaVuSans-35" transform="translate(95.410156 0)"/>
      </g>
     </g>
    </g>
    <g id="xtick_6">
     <g id="line2d_11">
      <path d="M 487.391801 541.82 
L 487.391801 17.1 
" clip-path="url(#pa68d272618)" style="fill: none; stroke-dasharray: 2.96,1.28; stroke-dashoffset: 0; stroke: #2a2a2a; stroke-opacity: 0.6; stroke-width: 0.8"/>
     </g>
     <g id="line2d_12">
      <g>
       <use xlink:href="#mfbeaac7b33" x="487.391801" y="541.82" style="fill: #666666; stroke: #666666; stroke-width: 0.8"/>
      </g>
     </g>
     <g id="text_6">
      <!-- 2.0 -->
      <g style="fill: #666666" transform="translate(479.440238 556.418437) scale(0.1 -0.1)">
       <defs>
        <path id="DejaVuSans-32" d="M 1228 531 
L 3431 531 
L 3431 0 
L 469 0 
L 469 531 
Q 828 903 1448 1529 
Q 2069 2156 2228 2338 
Q 2531 2678 2651 2914 
Q 2772 3150 2772 3378 
Q 2772 3750 2511 3984 
Q 2250 4219 1831 4219 
Q 1534 4219 1204 4116 
Q 875 4013 500 3803 
L 500 4441 
Q 881 4594 1212 4672 
Q 1544 4750 1819 4750 
Q 2544 4750 2975 4387 
Q 3406 4025 3406 3419 
Q 3406 3131 3298 2873 
Q 3191 2616 2906 2266 
Q 2828 2175 2409 1742 
Q 1991 1309 1228 531 
z
" transform="scale(0.015625)"/>
       </defs>
       <use xlink:href="#DejaVuSans-32"/>
       <use xlink:href="#DejaVuSans-2e" transform="translate(63.623047 0)"/>
       <use xlink:href="#DejaVuSans-30" transform="translate(95.410156 0)"/>
      </g>
     </g>
    </g>
   </g>
   <g id="matplotlib.axis_2">
    <g id="ytick_1">
     <g id="line2d_13">
      <path d="M 40.48 508.537144 
L 565.2 508.537144 
" clip-path="url(#pa68d272618)" style="fill: none; stroke-dasharray: 2.96,1.28; stroke-dashoffset: 0; stroke: #2a2a2a; stroke-opacity: 0.6; stroke-width: 0.8"/>
     </g>
     <g id="line2d_14">
      <defs>
       <path id="m0cfc45b0f1" d="M 0 0 
L -3.5 0 
" style="stroke: #666666; stroke-width: 0.8"/>
      </defs>
      <g>
       <use xlink:href="#m0cfc45b0f1" x="40.48" y="508.537144" style="fill: #666666; stroke: #666666; stroke-width: 0.8"/>
      </g>
     </g>
     <g id="text_7">
      <!-- −0.5 -->
      <g style="fill: #666666" transform="translate(9.197188 512.336363) scale(0.1 -0.1)">
       <use xlink:href="#DejaVuSans-2212"/>
       <use xlink:href="#DejaVuSans-30" transform="translate(83.789062 0)"/>
       <use xlink:href="#DejaVuSans-2e" transform="translate(147.412109 0)"/>
       <use xlink:href="#DejaVuSans-35" transform="translate(179.199219 0)"/>
      </g>
     </g>
    </g>
    <g id="ytick_2">
     <g id="line2d_15">
      <path d="M 40.48 424.369352 
L 565.2 424.369352 
" clip-path="url(#pa68d272618)" style="fill: none; stroke-dasharray: 2.96,1.28; stroke-dashoffset: 0; stroke: #2a2a2a; stroke-opacity: 0.6; stroke-width: 0.8"/>
     </g>
     <g id="line2d_16">
      <g>
       <use xlink:href="#m0cfc45b0f1" x="40.48" y="424.369352" style="fill: #666666; stroke: #666666; stroke-width: 0.8"/>
      </g>
     </g>
     <g id="text_8">
      <!-- 0.0 -->
      <g style="fill: #666666" transform="translate(17.576875 428.16857) scale(0.1 -0.1)">
       <use xlink:href="#DejaVuSans-30"/>
       <use xlink:href="#DejaVuSans-2e" transform="translate(63.623047 0)"/>
       <use xlink:href="#DejaVuSans-30" transform="translate(95.410156 0)"/>
      </g>
     </g>
    </g>
    <g id="ytick_3">
     <g id="line2d_17">
      <path d="M 40.48 340.201559 
L 565.2 340.201559 
" clip-path="url(#pa68d272618)" style="fill: none; stroke-dasharray: 2.96,1.28; stroke-dashoffset: 0; stroke: #2a2a2a; stroke-opacity: 0.6; stroke-width: 0.8"/>
     </g>
     <g id="line2d_18">
      <g>
       <use xlink:href="#m0cfc45b0f1" x="40.48" y="340.201559" style="fill: #666666; stroke: #666666; stroke-width: 0.8"/>
      </g>
     </g>
     <g id="text_9">
      <!-- 0.5 -->
      <g style="fill: #666666" transform="translate(17.576875 344.000778) scale(0.1 -0.1)">
       <use xlink:href="#DejaVuSans-30"/>
       <use xlink:href="#DejaVuSans-2e" transform="translate(63.623047 0)"/>
       <use xlink:href="#DejaVuSans-35" transform="translate(95.410156 0)"/>
      </g>
     </g>
    </g>
    <g id="ytick_4">
     <g id="line2d_19">
      <path d="M 40.48 256.033767 
L 565.2 256.033767 
" clip-path="url(#pa68d272618)" style="fill: none; stroke-dasharray: 2.96,1.28; stroke-dashoffset: 0; stroke: #2a2a2a; stroke-opacity: 0.6; stroke-width: 0.8"/>
     </g>
     <g id="line2d_20">
      <g>
       <use xlink:href="#m0cfc45b0f1" x="40.48" y="256.033767" style="fill: #666666; stroke: #666666; stroke-width: 0.8"/>
      </g>
     </g>
     <g id="text_10">
      <!-- 1.0 -->
      <g style="fill: #666666" transform="translate(17.576875 259.832986) scale(0.1 -0.1)">
       <use xlink:href="#DejaVuSans-31"/>
       <use xlink:href="#DejaVuSans-2e" transform="translate(63.623047 0)"/>
       <use xlink:href="#DejaVuSans-30" transform="translate(95.410156 0)"/>
      </g>
     </g>
    </g>
    <g id="ytick_5">
     <g id="line2d_21">
      <path d="M 40.48 171.865975 
L 565.2 171.865975 
" clip-path="url(#pa68d272618)" style="fill: none; stroke-dasharray: 2.96,1.28; stroke-dashoffset: 0; stroke: #2a2a2a; stroke-opacity: 0.6; stroke-width: 0.8"/>
     </g>
     <g id="line2d_22">
      <g>
       <use xlink:href="#m0cfc45b0f1" x="40.48" y="171.865975" style="fill: #666666; stroke: #666666; stroke-width: 0.8"/>
      </g>
     </g>
     <g id="text_11">
      <!-- 1.5 -->
      <g style="fill: #666666" transform="translate(17.576875 175.665194) scale(0.1 -0.1)">
       <use xlink:href="#DejaVuSans-31"/>
       <use xlink:href="#DejaVuSans-2e" transform="translate(63.623047 0)"/>
       <use xlink:href="#DejaVuSans-35" transform="translate(95.410156 0)"/>
      </g>
     </g>
    </g>
    <g id="ytick_6">
     <g id="line2d_23">
      <path d="M 40.48 87.698183 
L 565.2 87.698183 
" clip-path="url(#pa68d272618)" style="fill: none; stroke-dasharray: 2.96,1.28; stroke-dashoffset: 0; stroke: #2a2a2a; stroke-opacity: 0.6; stroke-width: 0.8"/>
     </g>
     <g id="line2d_24">
      <g>
       <use xlink:href="#m0cfc45b0f1" x="40.48" y="87.698183" style="fill: #666666; stroke: #666666; stroke-width: 0.8"/>
      </g>
     </g>
     <g id="text_12">
      <!-- 2.0 -->
      <g style="fill: #666666" transform="translate(17.576875 91.497401) scale(0.1 -0.1)">
       <use xlink:href="#DejaVuSans-32"/>
       <use xlink:href="#DejaVuSans-2e" transform="translate(63.623047 0)"/>
       <use xlink:href="#DejaVuSans-30" transform="translate(95.410156 0)"/>
      </g>
     </g>
    </g>
   </g>
   <g id="line2d_25">
    <path d="M 150.720632 424.369352 
L 487.391801 256.033767 
L 246.166908 259.400479 
L 456.418053 422.51766 
" clip-path="url(#pa68d272618)" style="fill: none; stroke-dasharray: 2.59,1.12; stroke-dashoffset: 0; stroke: #4e8ef7; stroke-opacity: 0.35; stroke-width: 0.7"/>
   </g>
   <g id="line2d_26">
    <path d="M 148.700605 255.192089 
L 394.470558 190.382889 
L 156.949048 181.124432 
L 447.327931 142.070576 
" clip-path="url(#pa68d272618)" style="fill: none; stroke-dasharray: 2.59,1.12; stroke-dashoffset: 0; stroke: #e05c5c; stroke-opacity: 0.35; stroke-width: 0.7"/>
   </g>
   <g id="patch_3">
    <path d="M 40.48 541.82 
L 40.48 17.1 
" style="fill: none; stroke: #666666; stroke-width: 0.8; stroke-linejoin: miter; stroke-linecap: square"/>
   </g>
   <g id="patch_4">
    <path d="M 565.2 541.82 
L 565.2 17.1 
" style="fill: none; stroke: #666666; stroke-width: 0.8; stroke-linejoin: miter; stroke-linecap: square"/>
   </g>
   <g id="patch_5">
    <path d="M 40.48 541.82 
L 565.2 541.82 
" style="fill: none; stroke: #666666; stroke-width: 0.8; stroke-linejoin: miter; stroke-linecap: square"/>
   </g>
   <g id="patch_6">
    <path d="M 40.48 17.1 
L 565.2 17.1 
" style="fill: none; stroke: #666666; stroke-width: 0.8; stroke-linejoin: miter; stroke-linecap: square"/>
   </g>
   <g id="LineCollection_1">
    <path d="M 150.720632 424.369352 
L 211.78264 407.565503 
" clip-path="url(#pa68d272618)" style="fill: none; stroke: #08306b; stroke-width: 2; stroke-linecap: round"/>
    <path d="M 211.78264 407.565503 
L 266.006233 391.574354 
" clip-path="url(#pa68d272618)" style="fill: none; stroke: #083573; stroke-width: 2; stroke-linecap: round"/>
    <path d="M 266.006233 391.574354 
L 313.696411 376.392363 
" clip-path="url(#pa68d272618)" style="fill: none; stroke: #083b7c; stroke-width: 2; stroke-linecap: round"/>
    <path d="M 313.696411 376.392363 
L 355.158172 362.015989 
" clip-path="url(#pa68d272618)" style="fill: none; stroke: #084285; stroke-width: 2; stroke-linecap: round"/>
    <path d="M 355.158172 362.015989 
L 390.696516 348.44169 
" clip-path="url(#pa68d272618)" style="fill: none; stroke: #08488e; stroke-width: 2; stroke-linecap: round"/>
    <path d="M 390.696516 348.44169 
L 420.616441 335.665925 
" clip-path="url(#pa68d272618)" style="fill: none; stroke: #084e98; stroke-width: 2; stroke-linecap: round"/>
    <path d="M 420.616441 335.665925 
L 445.222947 323.685153 
" clip-path="url(#pa68d272618)" style="fill: none; stroke: #0a539e; stroke-width: 2; stroke-linecap: round"/>
    <path d="M 445.222947 323.685153 
L 464.821033 312.495833 
" clip-path="url(#pa68d272618)" style="fill: none; stroke: #0e59a2; stroke-width: 2; stroke-linecap: round"/>
    <path d="M 464.821033 312.495833 
L 479.715698 302.094423 
" clip-path="url(#pa68d272618)" style="fill: none; stroke: #135fa7; stroke-width: 2; stroke-linecap: round"/>
    <path d="M 479.715698 302.094423 
L 490.211941 292.477382 
" clip-path="url(#pa68d272618)" style="fill: none; stroke: #1865ac; stroke-width: 2; stroke-linecap: round"/>
    <path d="M 490.211941 292.477382 
L 496.614762 283.641169 
" clip-path="url(#pa68d272618)" style="fill: none; stroke: #1c6bb0; stroke-width: 2; stroke-linecap: round"/>
    <path d="M 496.614762 283.641169 
L 499.229159 275.582242 
" clip-path="url(#pa68d272618)" style="fill: none; stroke: #2070b4; stroke-width: 2; stroke-linecap: round"/>
    <path d="M 499.229159 275.582242 
L 498.360132 268.29706 
" clip-path="url(#pa68d272618)" style="fill: none; stroke: #2676b8; stroke-width: 2; stroke-linecap: round"/>
    <path d="M 498.360132 268.29706 
L 494.312679 261.782082 
" clip-path="url(#pa68d272618)" style="fill: none; stroke: #2d7dbb; stroke-width: 2; stroke-linecap: round"/>
    <path d="M 494.312679 261.782082 
L 487.391801 256.033767 
" clip-path="url(#pa68d272618)" style="fill: none; stroke: #3383be; stroke-width: 2; stroke-linecap: round"/>
    <path d="M 487.391801 256.033767 
L 477.902495 251.048573 
" clip-path="url(#pa68d272618)" style="fill: none; stroke: #3989c1; stroke-width: 2; stroke-linecap: round"/>
    <path d="M 477.902495 251.048573 
L 466.149762 246.822959 
" clip-path="url(#pa68d272618)" style="fill: none; stroke: #3f8fc5; stroke-width: 2; stroke-linecap: round"/>
    <path d="M 466.149762 246.822959 
L 452.4386 243.353384 
" clip-path="url(#pa68d272618)" style="fill: none; stroke: #4594c7; stroke-width: 2; stroke-linecap: round"/>
    <path d="M 452.4386 243.353384 
L 437.074008 240.636307 
" clip-path="url(#pa68d272618)" style="fill: none; stroke: #4d99ca; stroke-width: 2; stroke-linecap: round"/>
    <path d="M 437.074008 240.636307 
L 420.360986 238.668185 
" clip-path="url(#pa68d272618)" style="fill: none; stroke: #549fcd; stroke-width: 2; stroke-linecap: round"/>
    <path d="M 420.360986 238.668185 
L 402.604533 237.445479 
" clip-path="url(#pa68d272618)" style="fill: none; stroke: #5ca4d0; stroke-width: 2; stroke-linecap: round"/>
    <path d="M 402.604533 237.445479 
L 384.109648 236.964646 
" clip-path="url(#pa68d272618)" style="fill: none; stroke: #64a9d3; stroke-width: 2; stroke-linecap: round"/>
    <path d="M 384.109648 236.964646 
L 365.18133 237.222145 
" clip-path="url(#pa68d272618)" style="fill: none; stroke: #6aaed6; stroke-width: 2; stroke-linecap: round"/>
    <path d="M 365.18133 237.222145 
L 346.124578 238.214436 
" clip-path="url(#pa68d272618)" style="fill: none; stroke: #74b3d8; stroke-width: 2; stroke-linecap: round"/>
    <path d="M 346.124578 238.214436 
L 327.244391 239.937976 
" clip-path="url(#pa68d272618)" style="fill: none; stroke: #7db8da; stroke-width: 2; stroke-linecap: round"/>
    <path d="M 327.244391 239.937976 
L 308.845769 242.389225 
" clip-path="url(#pa68d272618)" style="fill: none; stroke: #87bddc; stroke-width: 2; stroke-linecap: round"/>
    <path d="M 308.845769 242.389225 
L 291.233711 245.56464 
" clip-path="url(#pa68d272618)" style="fill: none; stroke: #91c3de; stroke-width: 2; stroke-linecap: round"/>
    <path d="M 291.233711 245.56464 
L 274.713215 249.460682 
" clip-path="url(#pa68d272618)" style="fill: none; stroke: #9ac8e0; stroke-width: 2; stroke-linecap: round"/>
    <path d="M 274.713215 249.460682 
L 259.589281 254.073809 
" clip-path="url(#pa68d272618)" style="fill: none; stroke: #a1cbe2; stroke-width: 2; stroke-linecap: round"/>
    <path d="M 259.589281 254.073809 
L 246.166908 259.400479 
" clip-path="url(#pa68d272618)" style="fill: none; stroke: #a9cfe5; stroke-width: 2; stroke-linecap: round"/>
    <path d="M 246.166908 259.400479 
L 234.751095 265.437151 
" clip-path="url(#pa68d272618)" style="fill: none; stroke: #b0d2e7; stroke-width: 2; stroke-linecap: round"/>
    <path d="M 234.751095 265.437151 
L 225.646842 272.180284 
" clip-path="url(#pa68d272618)" style="fill: none; stroke: #b8d5ea; stroke-width: 2; stroke-linecap: round"/>
    <path d="M 225.646842 272.180284 
L 219.159147 279.626336 
" clip-path="url(#pa68d272618)" style="fill: none; stroke: #bfd8ed; stroke-width: 2; stroke-linecap: round"/>
    <path d="M 219.159147 279.626336 
L 215.593009 287.771767 
" clip-path="url(#pa68d272618)" style="fill: none; stroke: #c7dbef; stroke-width: 2; stroke-linecap: round"/>
    <path d="M 215.593009 287.771767 
L 215.253429 296.613034 
" clip-path="url(#pa68d272618)" style="fill: none; stroke: #cadef0; stroke-width: 2; stroke-linecap: round"/>
    <path d="M 215.253429 296.613034 
L 218.445404 306.146597 
" clip-path="url(#pa68d272618)" style="fill: none; stroke: #cfe1f2; stroke-width: 2; stroke-linecap: round"/>
    <path d="M 218.445404 306.146597 
L 225.473934 316.368915 
" clip-path="url(#pa68d272618)" style="fill: none; stroke: #d3e4f3; stroke-width: 2; stroke-linecap: round"/>
    <path d="M 225.473934 316.368915 
L 236.644019 327.276446 
" clip-path="url(#pa68d272618)" style="fill: none; stroke: #d8e7f5; stroke-width: 2; stroke-linecap: round"/>
    <path d="M 236.644019 327.276446 
L 252.260656 338.865648 
" clip-path="url(#pa68d272618)" style="fill: none; stroke: #dceaf6; stroke-width: 2; stroke-linecap: round"/>
    <path d="M 252.260656 338.865648 
L 272.628846 351.132981 
" clip-path="url(#pa68d272618)" style="fill: none; stroke: #e0ecf8; stroke-width: 2; stroke-linecap: round"/>
    <path d="M 272.628846 351.132981 
L 298.053588 364.074904 
" clip-path="url(#pa68d272618)" style="fill: none; stroke: #e5eff9; stroke-width: 2; stroke-linecap: round"/>
    <path d="M 298.053588 364.074904 
L 328.83988 377.687874 
" clip-path="url(#pa68d272618)" style="fill: none; stroke: #eaf2fb; stroke-width: 2; stroke-linecap: round"/>
    <path d="M 328.83988 377.687874 
L 365.292722 391.968351 
" clip-path="url(#pa68d272618)" style="fill: none; stroke: #eef5fc; stroke-width: 2; stroke-linecap: round"/>
    <path d="M 365.292722 391.968351 
L 407.717114 406.912794 
" clip-path="url(#pa68d272618)" style="fill: none; stroke: #f3f8fe; stroke-width: 2; stroke-linecap: round"/>
    <path d="M 407.717114 406.912794 
L 456.418053 422.51766 
" clip-path="url(#pa68d272618)" style="fill: none; stroke: #f7fbff; stroke-width: 2; stroke-linecap: round"/>
   </g>
   <g id="LineCollection_2">
    <path d="M 68.59 266.435 
L 133.883055 257.320614 
" clip-path="url(#pa68d272618)" style="fill: none; stroke: #00441b; stroke-width: 2; stroke-linecap: round"/>
    <path d="M 133.883055 257.320614 
L 191.338005 248.912817 
" clip-path="url(#pa68d272618)" style="fill: none; stroke: #004a1e; stroke-width: 2; stroke-linecap: round"/>
    <path d="M 191.338005 248.912817 
L 241.327651 241.181924 
" clip-path="url(#pa68d272618)" style="fill: none; stroke: #005221; stroke-width: 2; stroke-linecap: round"/>
    <path d="M 241.327651 241.181924 
L 284.224794 234.098246 
" clip-path="url(#pa68d272618)" style="fill: none; stroke: #005a24; stroke-width: 2; stroke-linecap: round"/>
    <path d="M 284.224794 234.098246 
L 320.402232 227.632097 
" clip-path="url(#pa68d272618)" style="fill: none; stroke: #006227; stroke-width: 2; stroke-linecap: round"/>
    <path d="M 320.402232 227.632097 
L 350.232767 221.753789 
" clip-path="url(#pa68d272618)" style="fill: none; stroke: #00692a; stroke-width: 2; stroke-linecap: round"/>
    <path d="M 350.232767 221.753789 
L 374.089199 216.433635 
" clip-path="url(#pa68d272618)" style="fill: none; stroke: #026f2e; stroke-width: 2; stroke-linecap: round"/>
    <path d="M 374.089199 216.433635 
L 392.344329 211.641949 
" clip-path="url(#pa68d272618)" style="fill: none; stroke: #097532; stroke-width: 2; stroke-linecap: round"/>
    <path d="M 392.344329 211.641949 
L 405.370955 207.349041 
" clip-path="url(#pa68d272618)" style="fill: none; stroke: #107a37; stroke-width: 2; stroke-linecap: round"/>
    <path d="M 405.370955 207.349041 
L 413.54188 203.525227 
" clip-path="url(#pa68d272618)" style="fill: none; stroke: #16803c; stroke-width: 2; stroke-linecap: round"/>
    <path d="M 413.54188 203.525227 
L 417.229902 200.140818 
" clip-path="url(#pa68d272618)" style="fill: none; stroke: #1d8640; stroke-width: 2; stroke-linecap: round"/>
    <path d="M 417.229902 200.140818 
L 416.807823 197.166127 
" clip-path="url(#pa68d272618)" style="fill: none; stroke: #238b45; stroke-width: 2; stroke-linecap: round"/>
    <path d="M 416.807823 197.166127 
L 412.648442 194.571467 
" clip-path="url(#pa68d272618)" style="fill: none; stroke: #289049; stroke-width: 2; stroke-linecap: round"/>
    <path d="M 412.648442 194.571467 
L 405.12456 192.327151 
" clip-path="url(#pa68d272618)" style="fill: none; stroke: #2e964d; stroke-width: 2; stroke-linecap: round"/>
    <path d="M 405.12456 192.327151 
L 394.608978 190.403491 
" clip-path="url(#pa68d272618)" style="fill: none; stroke: #339c52; stroke-width: 2; stroke-linecap: round"/>
    <path d="M 394.608978 190.403491 
L 381.474494 188.770802 
" clip-path="url(#pa68d272618)" style="fill: none; stroke: #39a257; stroke-width: 2; stroke-linecap: round"/>
    <path d="M 381.474494 188.770802 
L 366.093911 187.399394 
" clip-path="url(#pa68d272618)" style="fill: none; stroke: #3fa85b; stroke-width: 2; stroke-linecap: round"/>
    <path d="M 366.093911 187.399394 
L 348.840027 186.259581 
" clip-path="url(#pa68d272618)" style="fill: none; stroke: #45ad5f; stroke-width: 2; stroke-linecap: round"/>
    <path d="M 348.840027 186.259581 
L 330.085644 185.321677 
" clip-path="url(#pa68d272618)" style="fill: none; stroke: #4eb264; stroke-width: 2; stroke-linecap: round"/>
    <path d="M 330.085644 185.321677 
L 310.203561 184.555993 
" clip-path="url(#pa68d272618)" style="fill: none; stroke: #58b668; stroke-width: 2; stroke-linecap: round"/>
    <path d="M 310.203561 184.555993 
L 289.566579 183.932843 
" clip-path="url(#pa68d272618)" style="fill: none; stroke: #62bb6d; stroke-width: 2; stroke-linecap: round"/>
    <path d="M 289.566579 183.932843 
L 268.547499 183.422539 
" clip-path="url(#pa68d272618)" style="fill: none; stroke: #6bc072; stroke-width: 2; stroke-linecap: round"/>
    <path d="M 268.547499 183.422539 
L 247.519119 182.995395 
" clip-path="url(#pa68d272618)" style="fill: none; stroke: #75c477; stroke-width: 2; stroke-linecap: round"/>
    <path d="M 247.519119 182.995395 
L 226.854242 182.621722 
" clip-path="url(#pa68d272618)" style="fill: none; stroke: #7cc87c; stroke-width: 2; stroke-linecap: round"/>
    <path d="M 226.854242 182.621722 
L 206.925666 182.271835 
" clip-path="url(#pa68d272618)" style="fill: none; stroke: #84cc83; stroke-width: 2; stroke-linecap: round"/>
    <path d="M 206.925666 182.271835 
L 188.106193 181.916045 
" clip-path="url(#pa68d272618)" style="fill: none; stroke: #8dd08a; stroke-width: 2; stroke-linecap: round"/>
    <path d="M 188.106193 181.916045 
L 170.768622 181.524665 
" clip-path="url(#pa68d272618)" style="fill: none; stroke: #95d391; stroke-width: 2; stroke-linecap: round"/>
    <path d="M 170.768622 181.524665 
L 155.285754 181.068009 
" clip-path="url(#pa68d272618)" style="fill: none; stroke: #9ed798; stroke-width: 2; stroke-linecap: round"/>
    <path d="M 155.285754 181.068009 
L 142.030389 180.516389 
" clip-path="url(#pa68d272618)" style="fill: none; stroke: #a4da9e; stroke-width: 2; stroke-linecap: round"/>
    <path d="M 142.030389 180.516389 
L 131.375327 179.840119 
" clip-path="url(#pa68d272618)" style="fill: none; stroke: #abdda5; stroke-width: 2; stroke-linecap: round"/>
    <path d="M 131.375327 179.840119 
L 123.693369 179.009509 
" clip-path="url(#pa68d272618)" style="fill: none; stroke: #b2e0ac; stroke-width: 2; stroke-linecap: round"/>
    <path d="M 123.693369 179.009509 
L 119.357315 177.994875 
" clip-path="url(#pa68d272618)" style="fill: none; stroke: #bae3b3; stroke-width: 2; stroke-linecap: round"/>
    <path d="M 119.357315 177.994875 
L 118.739965 176.766528 
" clip-path="url(#pa68d272618)" style="fill: none; stroke: #c1e6ba; stroke-width: 2; stroke-linecap: round"/>
    <path d="M 118.739965 176.766528 
L 122.21412 175.294781 
" clip-path="url(#pa68d272618)" style="fill: none; stroke: #c8e9c1; stroke-width: 2; stroke-linecap: round"/>
    <path d="M 122.21412 175.294781 
L 130.152579 173.549947 
" clip-path="url(#pa68d272618)" style="fill: none; stroke: #ccebc6; stroke-width: 2; stroke-linecap: round"/>
    <path d="M 130.152579 173.549947 
L 142.928144 171.502339 
" clip-path="url(#pa68d272618)" style="fill: none; stroke: #d2edcc; stroke-width: 2; stroke-linecap: round"/>
    <path d="M 142.928144 171.502339 
L 160.913614 169.12227 
" clip-path="url(#pa68d272618)" style="fill: none; stroke: #d8f0d2; stroke-width: 2; stroke-linecap: round"/>
    <path d="M 160.913614 169.12227 
L 184.481789 166.380052 
" clip-path="url(#pa68d272618)" style="fill: none; stroke: #ddf2d8; stroke-width: 2; stroke-linecap: round"/>
    <path d="M 184.481789 166.380052 
L 214.005471 163.245999 
" clip-path="url(#pa68d272618)" style="fill: none; stroke: #e3f4de; stroke-width: 2; stroke-linecap: round"/>
    <path d="M 214.005471 163.245999 
L 249.857459 159.690423 
" clip-path="url(#pa68d272618)" style="fill: none; stroke: #e7f6e2; stroke-width: 2; stroke-linecap: round"/>
    <path d="M 249.857459 159.690423 
L 292.410553 155.683637 
" clip-path="url(#pa68d272618)" style="fill: none; stroke: #eaf7e6; stroke-width: 2; stroke-linecap: round"/>
    <path d="M 292.410553 155.683637 
L 342.037554 151.195953 
" clip-path="url(#pa68d272618)" style="fill: none; stroke: #edf8ea; stroke-width: 2; stroke-linecap: round"/>
    <path d="M 342.037554 151.195953 
L 399.111262 146.197686 
" clip-path="url(#pa68d272618)" style="fill: none; stroke: #f1faee; stroke-width: 2; stroke-linecap: round"/>
    <path d="M 399.111262 146.197686 
L 464.004477 140.659146 
" clip-path="url(#pa68d272618)" style="fill: none; stroke: #f4fbf2; stroke-width: 2; stroke-linecap: round"/>
    <path d="M 464.004477 140.659146 
L 537.09 134.550648 
" clip-path="url(#pa68d272618)" style="fill: none; stroke: #f7fcf5; stroke-width: 2; stroke-linecap: round"/>
   </g>
   <g id="PathCollection_1">
    <defs>
     <path id="me8d0f444db" d="M 0 2.12132 
C 0.562581 2.12132 1.102195 1.897805 1.5 1.5 
C 1.897805 1.102195 2.12132 0.562581 2.12132 0 
C 2.12132 -0.562581 1.897805 -1.102195 1.5 -1.5 
C 1.102195 -1.897805 0.562581 -2.12132 0 -2.12132 
C -0.562581 -2.12132 -1.102195 -1.897805 -1.5 -1.5 
C -1.897805 -1.102195 -2.12132 -0.562581 -2.12132 0 
C -2.12132 0.562581 -1.897805 1.102195 -1.5 1.5 
C -1.102195 1.897805 -0.562581 2.12132 0 2.12132 
z
" style="stroke: #4e8ef7"/>
    </defs>
    <g clip-path="url(#pa68d272618)">
     <use xlink:href="#me8d0f444db" x="487.391801" y="256.033767" style="fill: #4e8ef7; stroke: #4e8ef7"/>
     <use xlink:href="#me8d0f444db" x="246.166908" y="259.400479" style="fill: #4e8ef7; stroke: #4e8ef7"/>
    </g>
   </g>
   <g id="PathCollection_2">
    <defs>
     <path id="m6c7cbce3a5" d="M 0 2.12132 
C 0.562581 2.12132 1.102195 1.897805 1.5 1.5 
C 1.897805 1.102195 2.12132 0.562581 2.12132 0 
C 2.12132 -0.562581 1.897805 -1.102195 1.5 -1.5 
C 1.102195 -1.897805 0.562581 -2.12132 0 -2.12132 
C -0.562581 -2.12132 -1.102195 -1.897805 -1.5 -1.5 
C -1.897805 -1.102195 -2.12132 -0.562581 -2.12132 0 
C -2.12132 0.562581 -1.897805 1.102195 -1.5 1.5 
C -1.102195 1.897805 -0.562581 2.12132 0 2.12132 
z
" style="stroke: #e05c5c"/>
    </defs>
    <g clip-path="url(#pa68d272618)">
     <use xlink:href="#m6c7cbce3a5" x="394.470558" y="190.382889" style="fill: #e05c5c; stroke: #e05c5c"/>
     <use xlink:href="#m6c7cbce3a5" x="156.949048" y="181.124432" style="fill: #e05c5c; stroke: #e05c5c"/>
    </g>
   </g>
   <g id="line2d_27">
    <defs>
     <path id="m115c77bc80" d="M 0 3.5 
C 0.928211 3.5 1.81853 3.131218 2.474874 2.474874 
C 3.131218 1.81853 3.5 0.928211 3.5 0 
C 3.5 -0.928211 3.131218 -1.81853 2.474874 -2.474874 
C 1.81853 -3.131218 0.928211 -3.5 0 -3.5 
C -0.928211 -3.5 -1.81853 -3.131218 -2.474874 -2.474874 
C -3.131218 -1.81853 -3.5 -0.928211 -3.5 0 
C -3.5 0.928211 -3.131218 1.81853 -2.474874 2.474874 
C -1.81853 3.131218 -0.928211 3.5 0 3.5 
z
" style="stroke: #ffffff"/>
    </defs>
    <g clip-path="url(#pa68d272618)">
     <use xlink:href="#m115c77bc80" x="150.720632" y="424.369352" style="fill: #4e8ef7; stroke: #ffffff"/>
    </g>
   </g>
   <g id="line2d_28">
    <defs>
     <path id="m0654cfe88c" d="M -3.5 3.5 
L 3.5 -3.5 
M -3.5 -3.5 
L 3.5 3.5 
" style="stroke: #4e8ef7; stroke-width: 1.8"/>
    </defs>
    <g clip-path="url(#pa68d272618)">
     <use xlink:href="#m0654cfe88c" x="456.418053" y="422.51766" style="fill: #4e8ef7; stroke: #4e8ef7; stroke-width: 1.8"/>
    </g>
   </g>
   <g id="line2d_29">
    <defs>
     <path id="mec3f23fd30" d="M 0 3.5 
C 0.928211 3.5 1.81853 3.131218 2.474874 2.474874 
C 3.131218 1.81853 3.5 0.928211 3.5 0 
C 3.5 -0.928211 3.131218 -1.81853 2.474874 -2.474874 
C 1.81853 -3.131218 0.928211 -3.5 0 -3.5 
C -0.928211 -3.5 -1.81853 -3.131218 -2.474874 -2.474874 
C -3.131218 -1.81853 -3.5 -0.928211 -3.5 0 
C -3.5 0.928211 -3.131218 1.81853 -2.474874 2.474874 
C -1.81853 3.131218 -0.928211 3.5 0 3.5 
z
" style="stroke: #ffffff"/>
    </defs>
    <g clip-path="url(#pa68d272618)">
     <use xlink:href="#mec3f23fd30" x="148.700605" y="255.192089" style="fill: #e05c5c; stroke: #ffffff"/>
    </g>
   </g>
   <g id="line2d_30">
    <defs>
     <path id="ma226c4b934" d="M -3.5 3.5 
L 3.5 -3.5 
M -3.5 -3.5 
L 3.5 3.5 
" style="stroke: #e05c5c; stroke-width: 1.8"/>
    </defs>
    <g clip-path="url(#pa68d272618)">
     <use xlink:href="#ma226c4b934" x="447.327931" y="142.070576" style="fill: #e05c5c; stroke: #e05c5c; stroke-width: 1.8"/>
    </g>
   </g>
  </g>
 </g>
 <defs>
  <clipPath id="pa68d272618">
   <rect x="40.48" y="17.1" width="524.72" height="524.72"/>
  </clipPath>
 </defs>
</svg>
